<?xml version="1.0" standalone="no"?>
<!DOCTYPE svg PUBLIC "-//W3C//DTD SVG 20010904//EN"
 "http://www.w3.org/TR/2001/REC-SVG-20010904/DTD/svg10.dtd">
<svg version="1.0" xmlns="http://www.w3.org/2000/svg"
 width="512.000000pt" height="512.000000pt" viewBox="0 0 512.000000 512.000000"
 preserveAspectRatio="xMidYMid meet">
<metadata>
Created by potrace 1.11, written by Peter Selinger 2001-2013
</metadata>
<g transform="translate(0.000000,512.000000) scale(0.100000,-0.100000)"
fill="#000000" stroke="none">
<path d="M2508 4563 c-14 -9 -31 -27 -37 -40 -7 -16 -11 -135 -11 -339 0 -342
2 -358 55 -382 51 -23 107 -7 131 39 11 23 14 90 14 343 0 205 -4 323 -11 339
-13 29 -58 57 -91 57 -12 0 -35 -8 -50 -17z"/>
<path d="M1174 4013 c-55 -11 -88 -94 -57 -143 31 -50 451 -459 477 -466 74
-18 140 49 121 123 -4 17 -90 110 -230 250 -197 196 -256 247 -283 242 -4 -1
-17 -4 -28 -6z"/>
<path d="M3874 4007 c-41 -22 -463 -454 -469 -480 -19 -74 48 -141 121 -123
33 9 469 441 483 479 14 36 4 81 -23 106 -25 24 -84 33 -112 18z"/>
<path d="M2438 3715 c-2 -2 -28 -6 -58 -10 -122 -15 -308 -84 -425 -157 -116
-73 -220 -168 -330 -303 -50 -60 -28 -145 41 -164 52 -14 86 3 137 67 128 164
301 280 494 333 111 31 110 31 238 35 108 3 167 -3 280 -30 53 -12 240 -94
232 -102 -2 -3 -61 9 -112 23 -36 10 -283 11 -332 2 -54 -10 -93 -19 -108 -23
-78 -21 -107 -32 -170 -61 -328 -149 -557 -450 -613 -805 -16 -102 -7 -305 18
-405 15 -63 12 -63 -21 0 -40 78 -85 213 -97 295 -6 36 -9 123 -7 194 2 126 2
129 -24 158 -46 51 -127 43 -158 -16 -22 -43 -26 -262 -7 -371 40 -225 142
-435 289 -597 170 -187 449 -336 685 -366 70 -9 260 -9 325 0 470 63 863 418
972 877 23 97 24 113 27 259 7 376 -161 713 -470 945 -111 84 -304 174 -414
194 -14 2 -45 9 -70 15 -41 9 -314 20 -322 13z"/>
<path d="M1511 3024 c-40 -33 -50 -85 -26 -130 18 -33 30 -41 80 -50 59 -10
120 63 108 129 -14 73 -103 101 -162 51z"/>
<path d="M588 2643 c-29 -18 -48 -52 -48 -84 0 -30 30 -76 57 -88 16 -7 134
-11 339 -11 342 0 358 2 382 55 23 51 7 107 -39 131 -23 11 -90 14 -346 14
-278 0 -321 -3 -345 -17z"/>
<path d="M3844 2649 c-25 -13 -54 -59 -54 -88 0 -33 20 -67 50 -84 25 -15 67
-17 344 -17 205 0 323 4 339 11 27 12 57 58 57 88 0 33 -20 67 -50 84 -25 15
-67 17 -347 16 -192 0 -326 -4 -339 -10z"/>
<path d="M1575 1708 c-37 -21 -454 -445 -464 -472 -33 -84 64 -166 139 -118
32 20 429 416 452 451 22 32 22 54 3 96 -24 49 -84 69 -130 43z"/>
<path d="M3454 1704 c-53 -26 -69 -86 -36 -135 31 -48 440 -449 468 -459 79
-30 159 60 121 135 -17 34 -443 454 -471 465 -36 13 -45 13 -82 -6z"/>
<path d="M2511 1316 c-49 -27 -50 -39 -51 -379 0 -280 2 -322 17 -347 38 -66
128 -66 166 0 15 25 17 67 17 342 0 172 -3 323 -6 335 -7 27 -62 63 -95 63
-13 -1 -35 -7 -48 -14z"/>
</g>
</svg>
